<svg xmlns="http://www.w3.org/2000/svg" viewBox="0 0 635 635"  xmlns:v="https://vecta.io/nano"><circle cx="317.5" cy="317.5" r="317.5" fill="#f6d738"/><circle cx="317.5" cy="317.5" r="269.46" fill="#f3cc30"/><path d="M458.48 87.52c26.83 41.89 42.39 91.7 42.39 145.14 0 148.82-120.64 269.46-269.46 269.46-51.68 0-99.96-14.56-140.98-39.79 47.89 74.76 131.69 124.32 227.07 124.32 148.82 0 269.46-120.64 269.46-269.46 0-97.14-51.4-182.26-128.48-229.67z" fill="#edbd31"/><path d="M95.24 342.16c0-131.37 106.49-237.86 237.86-237.86 76.79 0 145.06 36.39 188.55 92.86C480.58 125.85 403.6 77.85 315.4 77.85c-131.37 0-237.86 106.49-237.86 237.86 0 54.58 18.4 104.86 49.31 145-20.1-34.9-31.61-75.39-31.61-118.55z" fill="#f7db5e"/><g fill="#c69722"><path d="M376.99 221.45c-47.9.05-87.36 37.64-89.72 85.49h53.53c.07 1.46.11 2.91.11 4.37.02 24.08-9.66 47.15-26.87 64 26.15 25.76 65.36 32.98 98.98 18.24l53.78 49.05V311.3c-.03-49.6-40.22-89.8-89.81-89.85zm0 125.86c-19.91.01-36.05-16.13-36.05-36.03-.01-19.91 16.13-36.05 36.03-36.05 19.91-.01 36.05 16.13 36.05 36.03-.02 19.91-16.14 36.03-36.03 36.05z"/><path d="M340.92 229v-52.77l-53.78 52.82c-45.41-19.86-98.32.85-118.18 46.26s.85 98.32 46.26 118.18 98.32-.85 118.18-46.26a89.58 89.58 0 0 0 7.52-35.93c0-1.46-.04-2.91-.11-4.37h-53.53c1.68-34.03 22.44-64.2 53.64-77.93h0zm-89.84 118.33c-19.91-.01-36.04-16.15-36.03-36.05.01-19.91 16.15-36.04 36.05-36.03s36.04 16.15 36.03 36.05c-.02 19.9-16.15 36.02-36.05 36.03z"/><path d="M361.46 343.75v56a89.9 89.9 0 0 1-47.3-24.42c17.2-16.85 26.88-39.92 26.87-64v-.87h.04c-.02.29-.02.56-.02.85a36.05 36.05 0 0 0 20.41 32.44z"/></g></svg>